<svg xmlns="http://www.w3.org/2000/svg" xmlns:svgjs="http://svgjs.com/svgjs" xmlns:xlink="http://www.w3.org/1999/xlink" width="780" height="120" preserveAspectRatio="none" version="1.1" viewBox="0 0 780 120"><g fill="none" clip-path="url(&quot;#SvgjsClipPath1028&quot;)"><rect width="780" height="120" x="0" y="0" fill="#0e2a47"/><circle cx="-13.32" cy="7.92" r="20" stroke="#365aa3" stroke-opacity=".25" stroke-width="2"/><circle cx="61.18" cy="91.36" r="20" stroke="#365aa3" stroke-opacity=".25" stroke-width="2"/><circle cx="140.48" cy="154.03" r="20" stroke="#365aa3" stroke-opacity=".25" stroke-width="2"/><circle cx="239.01" cy="234.85" r="20" stroke="#365aa3" stroke-opacity=".25" stroke-width="2"/><circle cx="328.9" cy="312.54" r="20" stroke="#365aa3" stroke-opacity=".25" stroke-width="2"/><circle cx="416.79" cy="401.46" r="20" stroke="#365aa3" stroke-opacity=".25" stroke-width="2"/><circle cx="471.13" cy="495.48" r="20" stroke="#365aa3" stroke-opacity=".25" stroke-width="2"/><circle cx="562.74" cy="575.47" r="20" stroke="#365aa3" stroke-opacity=".25" stroke-width="2"/><circle cx="651.61" cy="659.02" r="20" stroke="#365aa3" stroke-opacity=".25" stroke-width="2"/><circle cx="182.61" cy="7.8" r="17.5" stroke="#365aa3" stroke-opacity=".25" stroke-width="2"/><circle cx="562.72" cy="117.57" r="20.555" stroke="#365aa3" stroke-opacity=".25" stroke-width="2"/><circle cx="21.48" cy="4.12" r="15.555" stroke="#365aa3" stroke-opacity=".25" stroke-width="2"/><circle cx="523.45" cy="70.19" r="17.48" stroke="#365aa3" stroke-opacity=".25" stroke-width="2"/><circle cx="498.89" cy="71.06" r="31.7" stroke="#365aa3" stroke-opacity=".25" stroke-width="2"/><circle cx="177.97" cy="65.77" r="31.055" stroke="#365aa3" stroke-opacity=".25" stroke-width="2"/><circle cx="623.17" cy="71.44" r="35.28" stroke="#365aa3" stroke-opacity=".25" stroke-width="2"/><circle cx="579.41" cy="35.3" r="30.57" stroke="#365aa3" stroke-opacity=".25" stroke-width="2"/><circle cx="716.03" cy="88.87" r="23.32" stroke="#365aa3" stroke-opacity=".25" stroke-width="2"/><circle cx="103.15" cy="60.38" r="32.7" stroke="#365aa3" stroke-opacity=".25" stroke-width="2"/><circle cx="176.4" cy="42.66" r="39.47" stroke="#365aa3" stroke-opacity=".25" stroke-width="2"/><circle cx="2.58" cy="35.57" r="35.74" stroke="#365aa3" stroke-opacity=".25" stroke-width="2"/><circle cx="627.98" cy="59.02" r="23.11" stroke="#365aa3" stroke-opacity=".25" stroke-width="2"/><circle cx="77.86" cy="37.22" r="29.655" stroke="#365aa3" stroke-opacity=".25" stroke-width="2"/><circle cx="534.37" cy="118.5" r="38.57" stroke="#365aa3" stroke-opacity=".25" stroke-width="2"/><circle cx="522.2" cy="79.76" r="14.725" stroke="#365aa3" stroke-opacity=".25" stroke-width="2"/><circle cx="531.53" cy="107.87" r="35.255" stroke="#365aa3" stroke-opacity=".25" stroke-width="2"/><circle cx="520.45" cy="86.35" r="10.715" stroke="#365aa3" stroke-opacity=".25" stroke-width="2"/><circle cx="450.85" cy="31.72" r="22.695" stroke="#365aa3" stroke-opacity=".25" stroke-width="2"/><circle cx="178.34" cy="42.52" r="19.365" stroke="#365aa3" stroke-opacity=".25" stroke-width="2"/><circle cx="708" cy="60.03" r="30.315" stroke="#365aa3" stroke-opacity=".25" stroke-width="2"/><circle cx="21.55" cy="98.24" r="24.9" stroke="#365aa3" stroke-opacity=".25" stroke-width="2"/><circle cx="405.33" cy="45.21" r="31.765" stroke="#365aa3" stroke-opacity=".25" stroke-width="2"/><circle cx="762.54" cy="119.74" r="33.09" stroke="#365aa3" stroke-opacity=".25" stroke-width="2"/><circle cx="626.6" cy="72.2" r="28.01" stroke="#365aa3" stroke-opacity=".25" stroke-width="2"/><circle cx="411.17" cy="93.42" r="11.865" stroke="#365aa3" stroke-opacity=".25" stroke-width="2"/><circle cx="204.29" cy="41.66" r="34.885" stroke="#365aa3" stroke-opacity=".25" stroke-width="2"/><circle cx="359.17" cy="104.93" r="32.605" stroke="#365aa3" stroke-opacity=".25" stroke-width="2"/><circle cx="324.62" cy="33.29" r="19.725" stroke="#365aa3" stroke-opacity=".25" stroke-width="2"/><circle cx="551.3" cy="96.15" r="24.82" stroke="#365aa3" stroke-opacity=".25" stroke-width="2"/><circle cx="688.59" cy="112.98" r="36.575" stroke="#365aa3" stroke-opacity=".25" stroke-width="2"/></g><defs><clipPath id="SvgjsClipPath1028"><rect width="780" height="120" x="0" y="0"/></clipPath></defs></svg>