<svg xmlns="http://www.w3.org/2000/svg" version="1.1" xmlns:xlink="http://www.w3.org/1999/xlink" xmlns:svgjs="http://svgjs.com/svgjs" width="780" height="120" preserveAspectRatio="none" viewBox="0 0 780 120"><g clip-path="url(&quot;#SvgjsClipPath1028&quot;)" fill="none"><rect width="780" height="120" x="0" y="0" fill="#0e2a47"></rect><circle r="20" cx="-13.32" cy="7.92" stroke="#365aa3" stroke-opacity="0.25" stroke-width="2"></circle><circle r="20" cx="61.18" cy="91.36" stroke="#365aa3" stroke-opacity="0.25" stroke-width="2"></circle><circle r="20" cx="140.48" cy="154.03" stroke="#365aa3" stroke-opacity="0.25" stroke-width="2"></circle><circle r="20" cx="239.01" cy="234.85" stroke="#365aa3" stroke-opacity="0.25" stroke-width="2"></circle><circle r="20" cx="328.9" cy="312.54" stroke="#365aa3" stroke-opacity="0.25" stroke-width="2"></circle><circle r="20" cx="416.79" cy="401.46" stroke="#365aa3" stroke-opacity="0.25" stroke-width="2"></circle><circle r="20" cx="471.13" cy="495.48" stroke="#365aa3" stroke-opacity="0.25" stroke-width="2"></circle><circle r="20" cx="562.74" cy="575.47" stroke="#365aa3" stroke-opacity="0.25" stroke-width="2"></circle><circle r="20" cx="651.61" cy="659.02" stroke="#365aa3" stroke-opacity="0.25" stroke-width="2"></circle><circle r="17.5" cx="182.61" cy="7.8" stroke="#365aa3" stroke-opacity="0.25" stroke-width="2"></circle><circle r="20.555" cx="562.72" cy="117.57" stroke="#365aa3" stroke-opacity="0.25" stroke-width="2"></circle><circle r="15.555" cx="21.48" cy="4.12" stroke="#365aa3" stroke-opacity="0.25" stroke-width="2"></circle><circle r="17.48" cx="523.45" cy="70.19" stroke="#365aa3" stroke-opacity="0.25" stroke-width="2"></circle><circle r="31.7" cx="498.89" cy="71.06" stroke="#365aa3" stroke-opacity="0.25" stroke-width="2"></circle><circle r="31.055" cx="177.97" cy="65.77" stroke="#365aa3" stroke-opacity="0.25" stroke-width="2"></circle><circle r="35.28" cx="623.17" cy="71.44" stroke="#365aa3" stroke-opacity="0.25" stroke-width="2"></circle><circle r="30.57" cx="579.41" cy="35.3" stroke="#365aa3" stroke-opacity="0.25" stroke-width="2"></circle><circle r="23.32" cx="716.03" cy="88.87" stroke="#365aa3" stroke-opacity="0.25" stroke-width="2"></circle><circle r="32.7" cx="103.15" cy="60.38" stroke="#365aa3" stroke-opacity="0.25" stroke-width="2"></circle><circle r="39.47" cx="176.4" cy="42.66" stroke="#365aa3" stroke-opacity="0.25" stroke-width="2"></circle><circle r="35.74" cx="2.58" cy="35.57" stroke="#365aa3" stroke-opacity="0.25" stroke-width="2"></circle><circle r="23.11" cx="627.98" cy="59.02" stroke="#365aa3" stroke-opacity="0.25" stroke-width="2"></circle><circle r="29.655" cx="77.86" cy="37.22" stroke="#365aa3" stroke-opacity="0.25" stroke-width="2"></circle><circle r="38.57" cx="534.37" cy="118.5" stroke="#365aa3" stroke-opacity="0.25" stroke-width="2"></circle><circle r="14.725" cx="522.2" cy="79.76" stroke="#365aa3" stroke-opacity="0.25" stroke-width="2"></circle><circle r="35.255" cx="531.53" cy="107.87" stroke="#365aa3" stroke-opacity="0.25" stroke-width="2"></circle><circle r="10.715" cx="520.45" cy="86.35" stroke="#365aa3" stroke-opacity="0.25" stroke-width="2"></circle><circle r="22.695" cx="450.85" cy="31.72" stroke="#365aa3" stroke-opacity="0.25" stroke-width="2"></circle><circle r="19.365" cx="178.34" cy="42.52" stroke="#365aa3" stroke-opacity="0.25" stroke-width="2"></circle><circle r="30.315" cx="708" cy="60.03" stroke="#365aa3" stroke-opacity="0.25" stroke-width="2"></circle><circle r="24.9" cx="21.55" cy="98.24" stroke="#365aa3" stroke-opacity="0.25" stroke-width="2"></circle><circle r="31.765" cx="405.33" cy="45.21" stroke="#365aa3" stroke-opacity="0.25" stroke-width="2"></circle><circle r="33.09" cx="762.54" cy="119.74" stroke="#365aa3" stroke-opacity="0.25" stroke-width="2"></circle><circle r="28.01" cx="626.6" cy="72.2" stroke="#365aa3" stroke-opacity="0.25" stroke-width="2"></circle><circle r="11.865" cx="411.17" cy="93.42" stroke="#365aa3" stroke-opacity="0.25" stroke-width="2"></circle><circle r="34.885" cx="204.29" cy="41.66" stroke="#365aa3" stroke-opacity="0.25" stroke-width="2"></circle><circle r="32.605" cx="359.17" cy="104.93" stroke="#365aa3" stroke-opacity="0.25" stroke-width="2"></circle><circle r="19.725" cx="324.62" cy="33.29" stroke="#365aa3" stroke-opacity="0.25" stroke-width="2"></circle><circle r="24.82" cx="551.3" cy="96.15" stroke="#365aa3" stroke-opacity="0.25" stroke-width="2"></circle><circle r="36.575" cx="688.59" cy="112.98" stroke="#365aa3" stroke-opacity="0.25" stroke-width="2"></circle></g><defs><clipPath id="SvgjsClipPath1028"><rect width="780" height="120" x="0" y="0"></rect></clipPath></defs></svg>