<svg xmlns="http://www.w3.org/2000/svg" width="50" height="50" desc="Created with imagetracer.js version 1.2.6" version="1.1"><path fill="#000" stroke="#000" stroke-width="1" d="M 2 0 L 24.5 0 L 25 2 L 26.5 2 L 26.5 0 L 36.5 0 L 38 1.5 L 35.5 2 L 33.5 2 L 32 2.5 L 32 10.5 Q 28.5 12 31 13.5 L 32 18 L 39.5 18 L 40.5 19 L 41.5 18 L 48 18 L 48 13 L 49.5 13 L 49 16.5 L 50 20.5 L 50 22.5 L 50 44.5 L 49 46.5 Q 51.8 48.2 47.5 50 L 43.5 49 L 40.5 50 L 38.5 50 L 31.5 49 L 28.5 50 L 24 48.5 Q 24.6 51.3 18.5 50 L 16.5 50 L 2.5 50 L 0 47.5 Q -1.3 42.8 1 41.5 L 0 40.5 L 0 18.5 L 0 16.5 Q -1.3 11.7 1 10.5 L 0 7.5 L 0 2.5 Q 2.8 3.1 2 0 Z M 28 15 L 25 17 L 29 17 L 28 15 Z M 20 21 Q 18 24 21 23 L 20 21 Z M 32 22 L 33 24 Q 34 21 32 22 Z M 3 28 L 1 30 L 3 30 L 3 28 Z M 26 38 L 25 42 L 26 42 L 26 38 Z M 46 40 L 46 43 L 48 42 Q 50 43 49 41 L 48 41 L 46 40 Z M 2 42 L 2 43 L 4 43 L 2 42 Z M 25 43 Q 23 46 26 45 L 25 43 Z M 2 46 L 2 48 L 4 47 L 2 46 Z M 6 46 L 4 48 L 6 48 L 6 46 Z" opacity="1"/><path fill="#000" stroke="#000" stroke-width="1" d="M 39 0 L 45.5 1 L 47.5 0 Q 51.9 3.3 50 12 L 48 11.5 L 48 2 L 42.5 2 L 40.5 2 Q 37.9 2.7 39 0 Z" opacity="1"/><path fill="#FEFEFE" stroke="#FEFEFE" stroke-width="1" d="M 32 2 L 48 2 L 48 18 L 32 18 L 32 2 Z" opacity="1"/><path fill="#000100" stroke="#000100" stroke-width="1" d="M 1.5 0 L 0.5 2 L 1.5 0 Z" opacity=".937"/><path fill="#000100" stroke="#000100" stroke-width="1" d="M 48.5 0 L 49.5 2 L 48.5 0 Z" opacity=".937"/><path fill="#000100" stroke="#000100" stroke-width="1" d="M 0.5 48 L 1.5 50 L 0.5 48 Z" opacity=".937"/><path fill="#000100" stroke="#000100" stroke-width="1" d="M 49.5 48 L 48.5 50 L 49.5 48 Z" opacity=".937"/><path fill="#010000" stroke="#010000" stroke-width="1" d="M 37.5 0 L 38.5 2 L 37.5 0 Z" opacity="1"/><path fill="#010000" stroke="#010000" stroke-width="1" d="M 17.5 7 L 18.5 9 L 16 8.5 L 17.5 7 Z" opacity="1"/><path fill="#010000" stroke="#010000" stroke-width="1" d="M 27.5 15 L 26.5 17 L 25 16.5 L 27.5 15 Z" opacity="1"/><path fill="#010000" stroke="#010000" stroke-width="1" d="M 41.5 19 L 42.5 21 L 41.5 19 Z" opacity="1"/><path fill="#010000" stroke="#010000" stroke-width="1" d="M 5.5 37 L 4.5 39 L 5.5 37 Z" opacity="1"/><path fill="#010000" stroke="#010000" stroke-width="1" d="M 44.5 39 L 47.5 41 L 49 40.5 Q 49.8 42.8 47.5 42 L 46 42.5 L 44.5 39 Z" opacity="1"/><path fill="#010000" stroke="#010000" stroke-width="1" d="M 0.5 41 L 1.5 43 L 0.5 41 Z" opacity="1"/><path fill="#010000" stroke="#010000" stroke-width="1" d="M 23.5 47 L 25.5 50 Q 23.3 50.8 24 48.5 L 23.5 47 Z" opacity="1"/><path fill="#000001" stroke="#000001" stroke-width="1" d="M 29.5 4 L 30.5 6 L 29.5 4 Z" opacity="1"/><path fill="#000001" stroke="#000001" stroke-width="1" d="M 5.5 7 L 4.5 9 L 3 8.5 L 5.5 7 Z" opacity="1"/><path fill="#000001" stroke="#000001" stroke-width="1" d="M 8.5 11 L 9.5 13 L 8.5 11 Z" opacity="1"/><path fill="#000001" stroke="#000001" stroke-width="1" d="M 31.5 11 L 29.5 14 L 28.5 12 Q 30 14.5 31.5 11 Z" opacity="1"/><path fill="#000001" stroke="#000001" stroke-width="1" d="M 11.5 14 L 12.5 16 L 11.5 14 Z" opacity="1"/><path fill="#000001" stroke="#000001" stroke-width="1" d="M 40.5 18 L 39.5 20 L 40.5 18 Z" opacity="1"/><path fill="#000001" stroke="#000001" stroke-width="1" d="M 24.5 21 L 27 22.5 L 25.5 22 L 24.5 21 Z" opacity="1"/><path fill="#000001" stroke="#000001" stroke-width="1" d="M 31.5 22 Q 33.8 21.3 33 23.5 L 31.5 22 Z" opacity="1"/><path fill="#000001" stroke="#000001" stroke-width="1" d="M 5.5 28 Q 9 30 4.5 32 L 5.5 28 Z" opacity="1"/><path fill="#000001" stroke="#000001" stroke-width="1" d="M 32.5 36 L 33.5 38 L 32.5 36 Z" opacity="1"/><path fill="#000001" stroke="#000001" stroke-width="1" d="M 24.5 43 L 25.5 45 L 24.5 43 Z" opacity="1"/><path fill="#000001" stroke="#000001" stroke-width="1" d="M 4.5 45 L 6 47.5 L 5 47.5 L 4.5 46 L 2 47.5 Q 1.3 45.3 3.5 46 L 4.5 45 Z" opacity="1"/></svg>